{
	"asset":{
		"generator":"Khronos glTF Blender I/O v3.6.27",
		"version":"2.0"
	},
	"scene":0,
	"scenes":[
		{
			"name":"Scene",
			"nodes":[
				6
			]
		}
	],
	"nodes":[
		{
			"mesh":0,
			"name":"defaultMaterial"
		},
		{
			"children":[
				0
			],
			"name":"Tablet_Low"
		},
		{
			"name":"Tablet_Low.001"
		},
		{
			"mesh":1,
			"name":"defaultMaterial.002"
		},
		{
			"children":[
				3
			],
			"name":"Tablet_Low.002"
		},
		{
			"children":[
				1,
				2,
				4
			],
			"name":"Collada visual scene group",
			"rotation":[
				0.70710688829422,
				0,
				0,
				0.7071066498756409
			]
		},
		{
			"children":[
				5
			],
			"name":"Sketchfab_model",
			"rotation":[
				-0.70710688829422,
				0,
				0,
				0.7071066498756409
			]
		}
	],
	"materials":[
		{
			"alphaMode":"BLEND",
			"doubleSided":true,
			"name":"MAT_TabletGlass",
			"normalTexture":{
				"index":0
			},
			"occlusionTexture":{
				"index":1
			},
			"pbrMetallicRoughness":{
				"baseColorFactor":[
					0.08125782757997513,
					0.8928292989730835,
					0.7235941886901855,
					1
				],
				"baseColorTexture":{
					"index":2
				},
				"metallicRoughnessTexture":{
					"index":1
				}
			}
		},
		{
			"doubleSided":true,
			"name":"MAT_Tablet",
			"normalTexture":{
				"index":3
			},
			"occlusionTexture":{
				"index":4
			},
			"pbrMetallicRoughness":{
				"baseColorTexture":{
					"index":5
				},
				"metallicRoughnessTexture":{
					"index":4
				}
			}
		}
	],
	"meshes":[
		{
			"name":"defaultMaterial",
			"primitives":[
				{
					"attributes":{
						"POSITION":0,
						"NORMAL":1,
						"TEXCOORD_0":2
					},
					"indices":3,
					"material":0
				}
			]
		},
		{
			"name":"defaultMaterial.002",
			"primitives":[
				{
					"attributes":{
						"POSITION":4,
						"NORMAL":5,
						"TEXCOORD_0":6
					},
					"indices":7,
					"material":1
				}
			]
		}
	],
	"textures":[
		{
			"sampler":0,
			"source":0
		},
		{
			"sampler":0,
			"source":1
		},
		{
			"sampler":0,
			"source":2
		},
		{
			"sampler":0,
			"source":3
		},
		{
			"sampler":0,
			"source":4
		},
		{
			"sampler":0,
			"source":5
		}
	],
	"images":[
		{
			"bufferView":4,
			"mimeType":"image/png",
			"name":"MAT_TabletGlass_normal"
		},
		{
			"bufferView":5,
			"mimeType":"image/png",
			"name":"MAT_TabletGlass_metallicRoughness"
		},
		{
			"bufferView":6,
			"mimeType":"image/png",
			"name":"MAT_TabletGlass_baseColor"
		},
		{
			"bufferView":11,
			"mimeType":"image/png",
			"name":"MAT_Tablet_normal"
		},
		{
			"bufferView":12,
			"mimeType":"image/png",
			"name":"MAT_Tablet_metallicRoughness"
		},
		{
			"bufferView":13,
			"mimeType":"image/jpeg",
			"name":"MAT_Tablet_baseColor"
		}
	],
	"accessors":[
		{
			"bufferView":0,
			"componentType":5126,
			"count":20,
			"max":[
				0.597707986831665,
				0.016979599371552467,
				0.9310420155525208
			],
			"min":[
				-0.597707986831665,
				-0.016979599371552467,
				-0.9310420155525208
			],
			"type":"VEC3"
		},
		{
			"bufferView":1,
			"componentType":5126,
			"count":20,
			"type":"VEC3"
		},
		{
			"bufferView":2,
			"componentType":5126,
			"count":20,
			"type":"VEC2"
		},
		{
			"bufferView":3,
			"componentType":5123,
			"count":48,
			"type":"SCALAR"
		},
		{
			"bufferView":7,
			"componentType":5126,
			"count":79,
			"max":[
				0.6666669845581055,
				0.028615200892090797,
				1
			],
			"min":[
				-0.6666669845581055,
				-0.028615200892090797,
				-1
			],
			"type":"VEC3"
		},
		{
			"bufferView":8,
			"componentType":5126,
			"count":79,
			"type":"VEC3"
		},
		{
			"bufferView":9,
			"componentType":5126,
			"count":79,
			"type":"VEC2"
		},
		{
			"bufferView":10,
			"componentType":5123,
			"count":288,
			"type":"SCALAR"
		}
	],
	"bufferViews":[
		{
			"buffer":0,
			"byteLength":240,
			"byteOffset":0,
			"target":34962
		},
		{
			"buffer":0,
			"byteLength":240,
			"byteOffset":240,
			"target":34962
		},
		{
			"buffer":0,
			"byteLength":160,
			"byteOffset":480,
			"target":34962
		},
		{
			"buffer":0,
			"byteLength":96,
			"byteOffset":640,
			"target":34963
		},
		{
			"buffer":0,
			"byteLength":109919,
			"byteOffset":736
		},
		{
			"buffer":0,
			"byteLength":222,
			"byteOffset":110656
		},
		{
			"buffer":0,
			"byteLength":3538,
			"byteOffset":110880
		},
		{
			"buffer":0,
			"byteLength":948,
			"byteOffset":114420,
			"target":34962
		},
		{
			"buffer":0,
			"byteLength":948,
			"byteOffset":115368,
			"target":34962
		},
		{
			"buffer":0,
			"byteLength":632,
			"byteOffset":116316,
			"target":34962
		},
		{
			"buffer":0,
			"byteLength":576,
			"byteOffset":116948,
			"target":34963
		},
		{
			"buffer":0,
			"byteLength":859649,
			"byteOffset":117524
		},
		{
			"buffer":0,
			"byteLength":160204,
			"byteOffset":977176
		},
		{
			"buffer":0,
			"byteLength":35881,
			"byteOffset":1137380
		}
	],
	"samplers":[
		{
			"magFilter":9729,
			"minFilter":9987
		}
	],
	"buffers":[
		{
			"byteLength":1173264,
			"uri":"data:application/octet-stream;base64,"
		}
	]
}
